HIERARCHY
ROOT pelvis
{
  OFFSET 0 100 0
  CHANNELS 6 Xposition Yposition Zposition Zrotation Xrotation Yrotation
  JOINT pelvis_right_femur
  {
    OFFSET -10.78128 -3.44521 -0.5502486
    CHANNELS 3 Zrotation Xrotation Yrotation
    JOINT right_femur_tibia
    {
      OFFSET -0.8047443 -44.0398 -0.1307829
      CHANNELS 3 Zrotation Xrotation Yrotation
      JOINT right_tibia_foot
      {
        OFFSET 3.006224 -47.83518 -5
        CHANNELS 3 Zrotation Xrotation Yrotation
        End Site
        {
          OFFSET 0 -5 15
        }
      }
    }
  }
  JOINT pelvis_left_femur
  {
    OFFSET 10.78128 -3.44521 -0.5502486
    CHANNELS 3 Zrotation Xrotation Yrotation
    JOINT left_femur_tibia
    {
      OFFSET 0.8047443 -44.0398 -0.1307829
      CHANNELS 3 Zrotation Xrotation Yrotation
      JOINT left_tibia_foot
      {
        OFFSET -4.370144 -48.10324 -4.275266
        CHANNELS 3 Zrotation Xrotation Yrotation
        End Site
        {
          OFFSET 0 -5 15
        }
      }
    }
  }
  JOINT pelvis_spine1
  {
    OFFSET 0 6.468898 -3.129235
    CHANNELS 3 Zrotation Xrotation Yrotation
    JOINT spine1
    {
      OFFSET 0 23.15396 4.99043
      CHANNELS 3 Zrotation Xrotation Yrotation
      JOINT spine2
      {
        OFFSET 0 20.79997 -5.064912
        CHANNELS 3 Zrotation Xrotation Yrotation
        JOINT neck
        {
          OFFSET 0 14.38658 9.616178
          CHANNELS 3 Zrotation Xrotation Yrotation
          End Site
          {
            OFFSET 0 20 0
          }
        }
      }
      JOINT right_manubrium
      {
        OFFSET -5.722621 16.35077 3.967754
        CHANNELS 3 Zrotation Xrotation Yrotation
        JOINT right_clavicle
        {
          OFFSET -13.16364 1.694482 -4.693211
          CHANNELS 3 Zrotation Xrotation Yrotation
          JOINT right_humerus
          {
            OFFSET -28.5034 -0.3100689 -2.792744
            CHANNELS 3 Zrotation Xrotation Yrotation
            JOINT right_radius
            {
              OFFSET -25.15693 0.02248979 -1.271978
              CHANNELS 3 Zrotation Xrotation Yrotation
              End Site
              {
                OFFSET -15 0 0
              }
            }
          }
        }
      }
      JOINT left_manubrium
      {
        OFFSET 5.722621 16.35077 3.967754
        CHANNELS 3 Zrotation Xrotation Yrotation
        JOINT left_clavicle
        {
          OFFSET 13.16364 1.694482 -4.693211
          CHANNELS 3 Zrotation Xrotation Yrotation
          JOINT left_humerus
          {
            OFFSET 29.39168 -1.063119 -2.237045
            CHANNELS 3 Zrotation Xrotation Yrotation
            JOINT left_radius
            {
              OFFSET 24.59957 -0.9528479 0.9047498
              CHANNELS 3 Zrotation Xrotation Yrotation
              End Site
              {
                OFFSET 15 -0 -0
              }
            }
          }
        }
      }
    }
  }
}
MOTION
Frames: 15
Frame Time: 0.0416666666667
0 103.5113 0 0.7954662 0.05061327 0.6078855 2.192746 -18.82334 8.524073 -0 33.62848 -0 3.61567 -15.1433 -6.837868 -6.011848 7.271222 -17.09557 -0 8.665571 -0 -5.898534 -20.83298 17.69256 -3.82688 0.8458301 3.766445 1.932269 4.95043 -6.68075 1.855663 22.255 8.039976 2.673548 -20.67101 10.2785 7.413607 -14.04158 9.826981 81.27057 38.1336 -15.36819 -0 0 14.6402 -13.68639 13.13355 8.984596 4.705729 -15.15979 -0.3278623 -89.31729 37.38082 14.67376 0 0 -21.39541 -7.41989 7.589126 24.85949
0.3530532 103.9585 3.992636 0.8972246 0.05015343 1.354805 1.904735 -20.32397 8.585678 -0 36.9602 -0 3.980114 -13.92103 -7.160425 -6.38397 9.190887 -17.58608 -0 7.880825 -0 -5.856526 -21.55098 17.61636 -4.048479 0.8531808 3.478102 1.914316 4.84978 -6.77332 1.875561 22.32921 8.224054 2.731123 -20.64955 10.48068 7.687012 -13.57172 9.707169 81.6165 38.41139 -15.89132 -0 0 14.01305 -13.61905 13.10833 8.886489 4.685442 -15.06368 -0.334215 -88.79764 37.8514 13.78618 0 0 -21.63535 -7.592353 7.433159 25.18593
0.7104686 104.2964 7.98493 0.7998692 0.01116459 2.069508 2.129416 -21.85769 7.898264 -0 34.7773 -0 3.009027 -13.12283 -6.997439 -6.230677 10.48798 -17.36196 -0 7.47604 -0 -5.159286 -21.74708 17.47718 -3.897936 0.6604563 3.272449 2.000208 5.215648 -7.028629 1.799936 22.26327 8.147231 2.7738 -20.81133 10.31725 7.217818 -13.79929 9.804576 82.67817 37.71968 -16.90979 -0 0 13.4861 -13.57159 12.86493 8.644631 4.99882 -15.92352 -0.6944054 -88.17642 36.60681 13.08112 0 0 -22.4323 -6.329346 8.286073 23.32147
1.042111 104.5422 11.92576 0.6731075 0.2418545 2.739982 2.487397 -23.88211 7.623319 -0 32.39795 -0 2.409883 -13.06634 -6.978427 -6.096528 12.01493 -17.40165 -0 7.297554 -0 -4.81101 -22.14315 17.28031 -3.790447 0.5594701 3.063452 2.172115 5.308588 -7.321294 1.74093 22.18878 8.142982 2.809227 -21.03981 10.2676 7.023873 -13.76324 9.842122 83.45728 37.58645 -17.96942 -0 0 12.91692 -13.13234 12.72979 8.26653 5.260227 -16.55538 -0.8427894 -87.62293 36.13727 12.24209 0 0 -23.51471 -5.625003 8.819585 22.28913
1.345736 104.683 15.84711 0.5420607 0.3560219 3.355463 2.846228 -25.52119 7.273322 -0 29.82768 -0 1.702148 -12.89599 -6.916699 -5.925053 13.24109 -17.28028 -0 7.601106 -0 -4.462555 -22.31675 17.06986 -3.635148 0.447369 2.894607 2.316429 5.490171 -7.582989 1.683657 22.11996 8.093282 2.836163 -21.22491 10.16354 6.741093 -13.80459 9.908606 84.27292 37.25502 -18.95727 -0 0 12.37342 -12.8316 12.5938 7.934428 5.508264 -17.23849 -1.044629 -87.12057 35.42156 11.52506 0 0 -24.47283 -4.770928 9.383338 21.04679
1.620451 104.7567 19.77155 0.4204856 0.4235198 3.909668 3.198478 -26.80288 7.019356 -0 27.48875 -0 1.105621 -12.79551 -6.885213 -5.761716 14.18895 -17.11407 -0 8.399513 -0 -4.265174 -22.34088 16.84497 -3.474414 0.3671995 2.770321 2.440745 5.649642 -7.798034 1.641469 22.06665 8.035818 2.852129 -21.36286 10.06298 6.503125 -13.81047 9.971868 84.96394 36.95741 -19.8023 -0 0 11.87282 -12.58062 12.50738 7.639811 5.696244 -17.81412 -1.212683 -86.7094 34.81364 10.91632 0 0 -25.29219 -4.064781 9.814062 20.02789
1.868407 104.7937 23.72976 0.3127151 0.4055875 4.396092 3.535193 -27.65669 6.799517 -0 25.35135 -0 0.5602637 -12.6705 -6.862081 -5.600128 14.82046 -16.85437 -0 9.720642 -0 -4.175696 -22.17341 16.6071 -3.296721 0.3066097 2.692684 2.534851 5.828121 -7.962665 1.611989 22.02949 7.95763 2.85747 -21.44443 9.946799 6.26772 -13.81761 10.04197 85.57293 36.6121 -20.50404 -0 0 11.41499 -12.43137 12.45829 7.397125 5.83137 -18.32075 -1.378851 -86.37912 34.19775 10.43219 0 0 -25.94185 -3.422097 10.15746 19.10675
2.09317 104.8307 27.75151 0.2225985 0.3110933 4.808477 3.856794 -28.04549 6.639467 -0 23.47131 -0 0.1028414 -12.56309 -6.856125 -5.44353 15.0999 -16.51122 -0 11.57882 -0 -4.220959 -21.81174 16.35987 -3.107191 0.2736011 2.667948 2.597781 6.008836 -8.0698 1.597786 22.01007 7.862515 2.850899 -21.46651 9.822259 6.054713 -13.81408 10.11493 86.06457 36.25685 -21.03641 -0 0 11.01605 -12.37567 12.45687 7.210235 5.903964 -18.72721 -1.528901 -86.14171 33.63086 10.08531 0 0 -26.40424 -2.900215 10.38948 18.36223
2.299494 104.904 31.86797 0.152602 0.1332473 5.140329 4.160996 -27.93505 6.529666 -0 21.8524 -0 -0.2706306 -12.46566 -6.864049 -5.288238 15.00128 -16.07416 -0 13.98846 -0 -4.397667 -21.24203 16.10724 -2.904074 0.2678259 2.699336 2.626471 6.197062 -8.115789 1.599105 22.00891 7.747963 2.832072 -21.42564 9.686468 5.859246 -13.80637 10.19223 86.43834 35.88352 -21.39048 -0 0 10.68268 -12.42443 12.50367 7.08453 5.912744 -19.0331 -1.666415 -85.99807 33.1016 9.884889 0 0 -26.66491 -2.496804 10.51518 17.78813
2.493018 105.0517 36.11035 0.1045494 -0.1294236 5.385053 4.444864 -27.29135 6.469689 -0 20.50753 -0 -0.5536091 -12.3871 -6.885156 -5.129364 14.49494 -15.54002 -0 16.95443 -0 -4.708463 -20.45514 15.85625 -2.687763 0.2910589 2.790967 2.61858 6.391638 -8.096162 1.616678 22.0265 7.613211 2.800498 -21.31912 9.539383 5.682936 -13.79711 10.27386 86.68438 35.49634 -21.55264 -0 0 10.42596 -12.58281 12.60104 7.025449 5.854774 -19.22991 -1.789493 -85.9531 32.61672 9.842555 0 0 -26.70889 -2.224398 10.53198 17.40001
2.679994 105.3113 40.50938 0.07934647 -0.4801672 5.536178 4.702969 -26.08815 6.450653 -0 19.43951 -0 -0.7489428 -12.32554 -6.915138 -4.95893 13.55841 -14.90453 -0 20.46102 -0 -5.145661 -19.44505 15.61673 -2.458199 0.3427126 2.94543 2.5716 6.595613 -8.00785 1.650444 22.06274 7.456717 2.756213 -21.14532 9.379306 5.522007 -13.79386 10.36068 86.80095 35.08963 -21.51359 -0 0 10.25593 -12.85909 12.74775 7.038954 5.730029 -19.31657 -1.899677 -86.00976 32.16779 9.969311 0 0 -26.52337 -2.079989 10.44387 17.19217
2.867074 105.7184 45.09334 0.0766839 -0.9187369 5.587844 4.927743 -24.31036 6.46148 -0 18.64389 -0 -0.8623992 -12.28182 -6.946751 -4.766371 12.17495 -14.1683 -0 24.44811 -0 -5.693313 -18.21583 15.40301 -2.216844 0.4207508 3.164183 2.483651 6.811483 -7.849016 1.699569 22.11655 7.277661 2.699754 -20.90523 9.204955 5.371427 -13.80804 10.45334 86.78709 34.65719 -21.26435 -0 0 10.1868 -13.25965 12.93931 7.131493 5.54117 -19.2943 -1.998172 -86.17208 31.7437 10.27811 0 0 -26.09792 -2.054918 10.25807 17.15146
3.061098 106.3025 49.88466 0.094394 -1.438128 5.535515 5.109869 -21.96596 6.486995 -0 18.09666 -0 -0.9063803 -12.26201 -6.967381 -4.538613 10.33998 -13.33959 -0 28.77641 -0 -6.320891 -16.78997 15.23459 -1.967434 0.5202596 3.44646 2.354379 7.041106 -7.620575 1.761675 22.18488 7.076417 2.632486 -20.60495 9.015482 5.22338 -13.85809 10.55226 86.64413 34.19199 -20.7981 -0 0 10.23937 -13.78633 13.16549 7.309302 5.296108 -19.16979 -2.086219 -86.44469 31.32776 10.78388 0 0 -25.42846 -2.130011 9.989625 17.24993
3.268926 107.0789 54.89457 0.1277204 -2.018167 5.37685 5.23958 -19.09968 6.510009 -0 17.74012 -0 -0.8997493 -12.2891 -6.957527 -4.261258 8.066226 -12.43979 -0 33.18586 -0 -6.979635 -15.21937 15.13636 -1.717451 0.6327489 3.788568 2.186555 7.282755 -7.327737 1.832125 22.26158 6.855791 2.556783 -20.25907 8.81158 5.068331 -13.97145 10.65697 86.37286 33.69193 -20.11034 -0 0 10.44578 -14.43033 13.40856 7.576983 5.010235 -18.95532 -2.163234 -86.83362 30.90266 11.50428 0 0 -24.52211 -2.277442 9.66405 17.44671
3.497379 108.0393 60.11669 0.169027 -2.620225 5.112568 5.308323 -15.80626 6.512991 -0 17.46941 -0 -0.8678037 -12.41223 -6.89001 -3.921224 5.389868 -11.50742 -0 37.26725 -0 -7.600531 -13.59377 15.13639 -1.47899 0.7456145 4.183115 1.987675 7.528797 -6.981634 1.903433 22.33647 6.622025 2.476064 -19.89344 8.596297 4.896002 -14.18528 10.76558 85.97177 33.16442 -19.20049 -0 0 10.85178 -15.16626 13.6423 7.935329 4.708159 -18.66936 -2.225559 -87.34616 30.45447 12.45861 0 0 -23.40271 -2.462423 9.319699 17.68957
